<svg xmlns="http://www.w3.org/2000/svg" width="18" height="18" viewBox="0 0 18 18" fill="none">
  <g opacity="0.8">
    <path d="M12.4642 4.94107L4.79139 12.6139C4.50911 12.8962 4.50911 13.3538 4.79139 13.6361L4.79215 13.6369C5.07443 13.9192 5.5321 13.9192 5.81438 13.6369L13.4872 5.96406C13.7695 5.68178 13.7695 5.22411 13.4872 4.94182L13.4864 4.94107C13.2042 4.65878 12.7465 4.65878 12.4642 4.94107Z" fill="white"/>
    <path d="M4.79165 5.96353L12.4645 13.6363C12.7468 13.9186 13.2044 13.9186 13.4867 13.6363L13.4875 13.6356C13.7697 13.3533 13.7697 12.8956 13.4875 12.6134L5.81465 4.94054C5.53236 4.65825 5.07469 4.65826 4.79241 4.94054L4.79165 4.94129C4.50937 5.22358 4.50937 5.68125 4.79165 5.96353Z" fill="white"/>
  </g>
</svg>