<svg width="20" height="20" viewBox="0 0 20 20" fill="none" xmlns="http://www.w3.org/2000/svg">
<path d="M3.4375 17.5C2.85734 17.5 2.30094 17.2695 1.8907 16.8593C1.48047 16.4491 1.25 15.8927 1.25 15.3125V12.1875C1.25 11.9389 1.34877 11.7004 1.52459 11.5246C1.7004 11.3488 1.93886 11.25 2.1875 11.25C2.43614 11.25 2.6746 11.3488 2.85041 11.5246C3.02623 11.7004 3.125 11.9389 3.125 12.1875V15.3125C3.125 15.485 3.265 15.625 3.4375 15.625H16.5625C16.6454 15.625 16.7249 15.5921 16.7835 15.5335C16.8421 15.4749 16.875 15.3954 16.875 15.3125V12.1875C16.875 11.9389 16.9738 11.7004 17.1496 11.5246C17.3254 11.3488 17.5639 11.25 17.8125 11.25C18.0611 11.25 18.2996 11.3488 18.4754 11.5246C18.6512 11.7004 18.75 11.9389 18.75 12.1875V15.3125C18.75 15.8927 18.5195 16.4491 18.1093 16.8593C17.6991 17.2695 17.1427 17.5 16.5625 17.5H3.4375Z" fill="#136DC7"/>
<path d="M14.7254 5.89969C14.8124 5.98669 14.8814 6.08998 14.9285 6.20365C14.9756 6.31732 14.9998 6.43916 14.9998 6.56219C14.9998 6.68523 14.9756 6.80706 14.9285 6.92074C14.8814 7.03441 14.8124 7.13769 14.7254 7.22469C14.6384 7.31169 14.5351 7.38071 14.4214 7.42779C14.3078 7.47488 14.1859 7.49911 14.0629 7.49911C13.9399 7.49911 13.818 7.47488 13.7044 7.42779C13.5907 7.38071 13.4874 7.31169 13.4004 7.22469L10.9379 4.76344V11.8747C10.9379 12.1233 10.8391 12.3618 10.6633 12.5376C10.4875 12.7134 10.249 12.8122 10.0004 12.8122C9.75175 12.8122 9.5133 12.7134 9.33748 12.5376C9.16166 12.3618 9.06289 12.1233 9.06289 11.8747V4.76344L6.60039 7.22469C6.51339 7.31169 6.41011 7.38071 6.29644 7.42779C6.18276 7.47488 6.06093 7.49911 5.93789 7.49911C5.81486 7.49911 5.69302 7.47488 5.57935 7.42779C5.46568 7.38071 5.36239 7.31169 5.27539 7.22469C5.18839 7.13769 5.11938 7.03441 5.0723 6.92074C5.02521 6.80706 5.00098 6.68523 5.00098 6.56219C5.00098 6.43916 5.02521 6.31732 5.0723 6.20365C5.11938 6.08998 5.18839 5.98669 5.27539 5.89969L9.33789 1.83719C9.42485 1.75011 9.52812 1.68103 9.6418 1.6339C9.75548 1.58676 9.87733 1.5625 10.0004 1.5625C10.1235 1.5625 10.2453 1.58676 10.359 1.6339C10.4727 1.68103 10.5759 1.75011 10.6629 1.83719L14.7254 5.89969Z" fill="#136DC7"/>
</svg>
